<?xml version="1.0" encoding="utf-8"?>
<!-- Generator: Adobe Illustrator 25.1.0, SVG Export Plug-In . SVG Version: 6.00 Build 0)  -->
<svg version="1.1" id="Layer_1" xmlns="http://www.w3.org/2000/svg" xmlns:xlink="http://www.w3.org/1999/xlink" x="0px" y="0px"
	 width="190px" height="188.4px" viewBox="0 0 179.6 178.1" style="enable-background:new 0 0 179.6 178.1;" xml:space="preserve">
<style type="text/css">
	.st0{fill:#FFFFFF;}
	.st1{fill:#00325C;}
</style>
<ellipse transform="matrix(0.9732 -0.2298 0.2298 0.9732 -18.1256 22.9714)" class="st0" cx="89.6" cy="89.3" rx="63.1" ry="63.1"/>
<path class="st1" d="M41.9,28.6C41.3,27,40.7,26,42,25.1l0.9-0.6l5.9,8.4l-1.1,0.7l0.2,0.3l3.5-2.7l-0.2-0.3l-1.1,0.8l-5.9-8.4
	l0.6-0.4c1.4-0.9,2.6-0.3,3.6,0.9l0.4-0.1l-1.9-2.5l-6.9,4.9l1.7,2.7L41.9,28.6z"/>
<polygon class="st1" points="49.6,19.9 54.2,29.1 53.1,29.6 53.3,30 57,28.1 56.8,27.8 55.7,28.3 53.4,23.8 57.6,21.7 60,26.2 
	58.9,26.7 59,27.1 62.7,25.2 62.6,24.8 61.4,25.4 56.8,16.2 58,15.5 57.8,15.2 54.1,17.1 54.3,17.5 55.4,16.9 57.6,21.1 53.3,23.2 
	51.2,19.1 52.2,18.5 52,18.1 48.3,20.1 48.5,20.5 "/>
<polygon class="st1" points="169.1,95.5 158.8,94.6 158.9,93.2 158.5,93.2 158.2,97.7 158.5,97.7 158.6,96.3 168.9,97.2 168.8,98.6 
	169.2,98.6 169.6,94.1 169.2,94.1 "/>
<path class="st1" d="M10.2,88.8c0.6,0.5,1.2,0.7,1.9,0.7c0.9,0.1,1.9-0.3,2.6-1.2c0.2-0.2,1.1-2.8,1.4-3.3c0.6-1.2,0.9-1.4,1.9-1.4
	c1.5,0.1,2.4,1.5,2.3,2.9c-0.1,1.6-1.3,2.7-2.8,3.1v0.3l2.9,0.1v-0.2L19.8,89c0.7-0.6,1-1.6,1-2.5c0.1-2.1-1.3-3.6-3.5-3.7
	c-4.5-0.2-3,6.1-5.7,6c-1.3,0-1.9-1.3-1.9-2.4c0-1.5,1.1-2.4,2.5-2.7v-0.4l-2.6-0.1v0.2L9.9,84C9.6,84.3,9,85.4,9,86.2
	C9,87.4,9.5,88.2,10.2,88.8z"/>
<path class="st1" d="M72.6,11l1.9,10.1l-1.3,0.3l0.1,0.4l8.1-1.6l-0.4-3.1l-0.3,0.1c0,1.1-0.4,2.8-1.7,3.1l-2.9,0.6l-1.9-10.1
	l1.5-0.3l-0.1-0.4l-4.4,0.8l0.1,0.4L72.6,11z"/>
<path class="st1" d="M19.3,56.3c0.8,0.5,1.9,0.6,2.9,0c0.3-0.2,2.2-2,2.7-2.5c1-0.9,1.6-0.9,2.4-0.5c1.3,0.7,1.5,2.3,0.8,3.6
	c-0.7,1.4-2.2,1.9-3.8,1.6l-0.2,0.3l2.6,1.3l0.1-0.2l-0.5-0.7c0.9-0.4,1.6-1,2-1.9c1-1.9,0.5-3.9-1.6-4.9c-4-2.1-5.4,4.3-7.8,3
	c-1-0.6-1.2-2-0.6-3.1c0.7-1.4,2.1-1.7,3.5-1.4l0.2-0.3l-2.3-1.2l-0.1,0.2l0.1,0.8c-0.4,0.2-1.3,0.9-1.7,1.6c-0.6,1.1-0.6,2-0.2,2.8
	C18.3,55.5,18.8,56,19.3,56.3z"/>
<polygon class="st1" points="10.3,79.2 20.5,80.6 20.3,82 20.7,82.1 21.3,77.7 20.9,77.6 20.7,79 10.5,77.6 10.7,76.2 10.3,76.1 
	9.8,80.5 10.2,80.6 "/>
<path class="st1" d="M13.6,75.3c-1.5-0.6-2.6-1.1-2.2-2.6l0.3-1l10,2.3l-0.3,1.3l0.4,0.1l0.8-4.1l-0.4-0.1l-0.3,1.3l-10-2.3l0.2-0.7
	c0.5-1.7,1.8-1.9,3.3-1.8l0.1-0.5l-3.1-0.6l-1.9,8.2l3.1,0.9L13.6,75.3z"/>
<path class="st1" d="M22.5,69.9l0.4,0.1l1-3.1l-0.4-0.1L23,68.1l-3-2.3l1.1-3L25,63l-0.5,1.3h0.3l1.5-3.9l-0.4-0.1l-0.4,1.1
	l-11.3-0.6L14,61.6l8.9,7.1L22.5,69.9z M16.1,62.6l4.6,0.3l-0.9,2.6L16.1,62.6z"/>
<path class="st1" d="M166,99.9c-0.8-0.2-1.9,0-2.7,0.8c-0.2,0.2-1.5,2.6-1.9,3.1c-0.6,1.1-1.2,1.3-2.1,1.1c-1.4-0.3-2.1-1.8-1.9-3.1
	c0.4-1.6,1.7-2.5,3.2-2.7l0.1-0.3l-2.8-0.6v0.2l0.5,1.1c-0.8,0.6-1.2,1.4-1.4,2.3c-0.4,2.1,0.7,3.8,3,4.2c4.4,0.8,3.8-5.6,6.5-5.2
	c1.2,0.3,1.8,1.6,1.6,2.7c-0.2,1.5-1.5,2.2-2.9,2.3l-0.1,0.3l2.5,0.5v-0.2l-0.4-0.7c0.3-0.3,1-1.3,1.1-2c0.3-1.3-0.1-2.1-0.6-2.8
	C167.2,100.3,166.7,100,166,99.9z"/>
<path class="st1" d="M68.1,23.6c2.7-0.8,3.6-4.2,2.7-6.9c-0.9-2.8-3.6-4.9-6.3-4c-2.7,0.9-3.6,4.2-2.7,6.9
	C62.6,22.4,65.4,24.5,68.1,23.6z M64.7,13c2.1-0.6,3.3,1,4.4,4.3c1,3.2,1.1,5.4-1,6c-2.1,0.6-3.3-1-4.4-4.3
	C62.6,15.7,62.6,13.7,64.7,13z"/>
<path class="st1" d="M159.2,61.7c-2.8,0.9-4.9,3.6-4.1,6.3c0.8,2.8,4.2,3.7,6.9,2.8c2.9-0.9,4.9-3.6,4.1-6.3
	C165.2,61.8,162,60.8,159.2,61.7z M165.8,64.7c0.6,2.1-1,3.3-4.3,4.4s-5.3,1-6-1.1c-0.6-2.1,1-3.3,4.3-4.4
	C163,62.6,165,62.6,165.8,64.7z"/>
<path class="st1" d="M169.3,82.8v1.3L159,84.4v-1.3h-0.4l0.1,4.4c0,0.8,0.2,2.4,1.3,3.4c1.1,1,2.5,1.7,4.4,1.7
	c3.2-0.1,5.4-2.1,5.3-5.3l-0.1-4.4H169.3z M169.3,87c0,3.4-2.4,3.6-4.7,3.7c-1.6,0-3.1-0.1-3.8-0.4c-0.7-0.4-1.7-0.9-1.8-2.9v-1.6
	l10.3-0.1V87z"/>
<path class="st1" d="M157.4,73.8l-0.2-1.3l-0.4,0.1l0.7,4l0.4-0.1l-0.2-1.3l5.3-0.9l0.2,1c0.4,2-0.8,2.4-1.6,2.6
	c-0.9,0.3-2.2,0.6-2.5,0.7c-0.7,0.3-1.2,1.1-1,2.2c0.1,0.4,0.3,0.8,0.6,1.4l0.4-0.1c-0.4-0.5-0.6-1-0.4-1.4c0.1-0.4,0.7-0.6,1.6-0.6
	c2.6-0.3,3.1-1.7,3.2-3.6c0.4,1.6,1.1,3.3,3.2,3c0.7-0.1,2.3-0.8,1.8-4l-0.8-4.8l-0.4,0.1l0.2,1.3L157.4,73.8z M167.9,73.6l0.3,1.6
	c0.3,1.6-0.1,2.3-1.7,2.6c-2.2,0.4-2.6-0.7-2.9-2.5l-0.2-0.9L167.9,73.6z"/>
<path class="st1" d="M151.7,59.3c0.4,0.8,1,1.6,1.9,1.9l-0.4,0.7l0.2,0.4l2.7-1.3l-0.2-0.4c-1.5,0.3-3.1,0-3.8-1.5
	c-1.2-2.4,0.5-3.6,3.1-4.8c0.8-0.5,3-1.5,4.4-1.4c0.6,0,1.7,0.5,2.1,1.4c0.8,1.6,0.1,2.9-1.2,3.9l0.2,0.4l2.4-1.3l-0.1-0.2l-0.6-0.3
	c0.2-1,0.2-1.7-0.3-2.6c-1-2.1-4.3-3.2-7.2-1.9C152,53.9,150.4,56.6,151.7,59.3z"/>
<polygon class="st1" points="143.4,45 142.4,43.9 142.2,44.1 144.9,47.7 145.2,47.3 144.3,46.2 152.3,39.8 153.3,40.9 153.5,40.6 
	150.8,37.2 150.5,37.5 151.4,38.6 "/>
<path class="st1" d="M113.1,23.4c0.4,0.9,1.2,1.5,2,1.9c2,0.8,3.9,0.1,4.7-2c1.7-4.2-4.8-4.9-3.8-7.4c0.5-1.2,1.9-1.4,3-1
	c1.3,0.6,1.9,1.9,1.7,3.3l0.3,0.1l0.9-2.4l-0.2-0.1l-0.7,0.2c-0.3-0.4-1-1.2-1.8-1.5c-1.1-0.5-2-0.3-2.8,0.1c-0.6,0.4-1,0.8-1.3,1.5
	c-0.4,0.9-0.4,1.9,0.3,2.9c0.2,0.2,2.2,1.9,2.7,2.4c0.9,0.9,1,1.4,0.6,2.3c-0.5,1.4-2.1,1.8-3.4,1.2c-1.5-0.6-2.1-2.1-1.9-3.7
	l-0.3-0.1l-1,2.7l0.2,0.1L113.1,23.4z"/>
<polygon class="st1" points="83,19.9 81.6,20 81.6,20.4 86.1,20 86.1,19.6 84.7,19.7 83.8,9.4 85.2,9.3 85.2,9 80.8,9.3 80.8,9.7 
	82.2,9.6 "/>
<path class="st1" d="M91.4,20.2c0.9,0.1,1.8-0.2,2.6-0.8l0.5,0.6H95l0.1-3h-0.4c-0.5,1.4-1.5,2.7-3.1,2.7c-2.6,0-3-2-2.9-4.9
	c0-0.9,0.1-3.2,0.7-4.4c0.4-0.6,1.2-1.3,2.2-1.3c1.8,0,2.6,1.3,2.9,2.9H95L95,9.1h-0.3l-0.6,0.5c-0.7-0.6-1.4-0.9-2.4-0.9
	c-2.4,0-4.9,2.4-5,5.6C86.7,17.4,88.4,20.1,91.4,20.2z"/>
<path class="st1" d="M119.1,25.9l-0.2,0.4l2.9,1.6l0.2-0.4l-1.2-0.7l2.8-2.6l2.8,1.6l-0.8,3.7l-1.2-0.6l-0.2,0.4l3.6,2l0.2-0.4
	l-1-0.6l2.3-11.1l-0.6-0.3l-8.4,7.7L119.1,25.9z M127.4,20.7l-1,4.5l-2.4-1.4L127.4,20.7z"/>
<path class="st1" d="M141.1,34.7l0.7,0.7c1.5,1.5,0.6,2.5,0.2,3.1c-0.6,0.7-1.5,1.8-1.7,2c-0.4,0.6-0.4,1.6,0.5,2.4
	c0.4,0.3,0.7,0.6,1.3,0.8l0.3-0.3c-0.6-0.3-1-0.6-1.1-1c-0.1-0.4,0.4-0.9,0.9-1.5c1.9-1.8,1.6-3.1,0.6-4.8c1.2,1,2.8,2,4.4,0.6
	c0.6-0.5,1.4-2-0.8-4.3l-3.4-3.4l-0.3,0.3l0.9,0.9l-7.3,7.2l-0.9-0.9l-0.3,0.3l3,2.9l0.3-0.3l-0.9-0.9L141.1,34.7z M144.7,31.4
	l1.1,1.1c1.1,1.1,1.2,1.9,0.1,3.1c-1.6,1.6-2.5,0.9-3.8-0.4l-0.6-0.6L144.7,31.4z"/>
<path class="st1" d="M154.8,131c-0.8-0.6-1.9-0.8-2.9-0.4c-0.3,0.1-2.4,1.7-3,2c-1.1,0.7-1.6,0.6-2.4,0.1c-1.2-0.8-1.2-2.5-0.4-3.6
	c0.9-1.4,2.5-1.6,4-1.1l0.2-0.3l-2.3-1.7l-0.1,0.2l0.1,1.2c-0.9,0.2-1.7,0.8-2.2,1.6c-1.3,1.8-0.9,3.7,0.9,5
	c3.6,2.6,5.8-3.5,8.1-1.9c1,0.6,0.9,2.1,0.3,3.1c-0.8,1.2-2.3,1.4-3.6,0.9l-0.2,0.3l2.1,1.5l0.1-0.2v-0.8c0.4-0.2,1.4-0.7,1.9-1.4
	c0.7-1,0.8-2,0.6-2.8C155.7,131.9,155.3,131.3,154.8,131z"/>
<path class="st1" d="M90.7,158.6c-2.9,0-4.7,2.9-4.6,5.7c0.1,2.9,1.9,5.6,4.8,5.6c2.9,0,4.7-2.9,4.6-5.7
	C95.4,161.2,93.5,158.6,90.7,158.6z M90.8,169.6c-2.2,0-2.8-1.9-2.9-5.3c0-3.4,0.6-5.4,2.8-5.4c2.2,0,2.8,1.9,2.9,5.3
	C93.7,167.5,93.1,169.5,90.8,169.6z"/>
<polygon class="st1" points="80.7,158.7 82.1,158.8 81.2,168.9 79.8,168.8 79.8,169.2 84.1,169.6 84.1,169.2 82.7,169.1 83.7,159 
	85,159.1 85,158.7 80.7,158.4 "/>
<path class="st1" d="M75,157.2l-4.3-0.8l-0.1,0.4l1.2,0.3l-2,9.9l-1.2-0.3l-0.1,0.4l4.3,0.8c0.8,0.2,2.4,0.4,3.6-0.5
	c1.1-0.8,2.1-2,2.5-3.9C79.5,160.2,78,157.8,75,157.2z M77.1,162.8c-0.3,1.6-0.6,3-1.1,3.6c-0.5,0.6-1.3,1.5-3.1,1.1l-1.6-0.3l2-10
	l1.2,0.3C77.8,158.2,77.5,160.6,77.1,162.8z"/>
<path class="st1" d="M135.8,33.6c-1.2,0.8-2.8,1.3-4.1,0.4c-2.1-1.6-1.1-3.4,0.6-5.6c0.6-0.7,2-2.6,3.2-3.1c0.6-0.3,1.8-0.4,2.6,0.3
	c1.4,1,1.3,2.5,0.6,4l0.3,0.2l1.6-2.2l-0.2-0.2l-0.7,0.1c-0.3-0.9-0.6-1.6-1.4-2.1c-1.9-1.4-5.4-0.9-7.3,1.7
	c-1.9,2.5-2.1,5.6,0.3,7.5c0.7,0.6,1.6,0.9,2.6,0.8V36l0.4,0.3l1.9-2.4L135.8,33.6z"/>
<polygon class="st1" points="151,140.1 140.4,135.5 140.1,135.8 145.8,145.8 144.9,146.6 145.2,146.9 147.3,144.6 147.1,144.3 
	146.1,145.4 141.8,137.9 149.8,141.4 148.9,142.4 149.2,142.6 152.1,139.6 151.8,139.2 "/>
<path class="st1" d="M98.8,20.2L97.5,20l1.8-3.4l3.1,0.5l0.6,3.8l-1.3-0.2l-0.1,0.4l4.1,0.6l0.1-0.4l-1.1-0.2L103,9.9l-0.6-0.1
	l-5.3,10.1l-1.3-0.2l-0.1,0.4l3.1,0.5L98.8,20.2z M101.6,11.9l0.6,4.6l-2.8-0.5L101.6,11.9z"/>
<path class="st1" d="M163.9,117.7l-9.9-3.9c-0.6-0.3-0.8-0.7-0.6-1.3c0.1-0.2,0.3-0.5,0.5-0.4c0.2,0.1,0.2,0.5,0.6,0.6
	c0.5,0.2,0.9,0,1.1-0.5c0.3-0.6,0-1-0.6-1.2c-0.9-0.3-1.7,0.5-1.9,1.1c-0.6,1.4,0,3.1,1.5,3.6l8.9,3.4l-0.5,1.3l0.4,0.1l1.5-4.3
	l-0.4-0.1L163.9,117.7z"/>
<polygon class="st1" points="131.5,157.6 126.3,148.9 127.5,148.2 127.4,147.8 123.6,150 123.7,150.4 124.9,149.7 130.1,158.4 
	128.9,159.1 129.1,159.4 132.9,157.2 132.7,156.9 "/>
<path class="st1" d="M105.1,165.1c-0.1,1-0.5,2.8-1.8,3l-2.9,0.5l-1.5-10l1.5-0.2l-0.1-0.4l-4.4,0.6l0.1,0.4l1.3-0.2l1.5,10
	l-1.3,0.2l0.1,0.4l8-1.2l-0.3-3.1H105.1z"/>
<path class="st1" d="M115.5,165.2l-6.2-9.3l-0.6,0.2l-0.5,11.2l-1.2,0.4l0.1,0.4l3.2-0.8l-0.1-0.4l-1.4,0.4l0.1-3.8l3-0.8l2,3.1
	l-1.3,0.4l0.1,0.4l4-1.1l-0.1-0.4L115.5,165.2z M108.8,162.8l0.2-4.6l2.5,3.9L108.8,162.8z"/>
<polygon class="st1" points="123,151 122.8,150.6 120,151.8 120.2,152.2 121.4,151.6 124.6,158.5 117.1,153.2 114.2,154.5 
	114.4,154.9 115.6,154.3 119.7,163.7 118.5,164.3 118.6,164.7 121.4,163.4 121.2,163 120.1,163.6 116.1,154.6 126,161.5 
	126.3,161.3 121.9,151.5 "/>
<polygon class="st1" points="25.6,114.6 25.4,114.2 14,115 13.6,113.9 13.2,113.9 14.3,116.9 14.7,116.7 14.1,115.3 22.7,114.8 
	16.1,120.4 15.6,119.2 15.3,119.4 16.8,123.3 17.3,123.1 16.8,122 "/>
<polygon class="st1" points="28.3,122.3 29,123.6 29.3,123.4 27.3,119.5 26.9,119.7 27.6,121 18.5,125.8 17.8,124.5 17.5,124.7 
	19.5,128.6 19.9,128.4 19.2,127.1 "/>
<path class="st1" d="M20.7,99.3l0.1,1.3h0.4l-0.3-4.2h-0.4l0.1,1.3l-5.4,0.6l-0.1-1c-0.2-2,1-2.3,1.8-2.5c1-0.2,2.3-0.5,2.6-0.6
	c0.7-0.3,1.3-0.9,1.2-2.1c-0.1-0.4-0.2-0.8-0.5-1.4h-0.4c0.2,0.6,0.4,1.1,0.2,1.5c-0.2,0.4-0.8,0.6-1.7,0.6
	c-2.7,0.1-3.2,1.4-3.5,3.3c-0.3-1.5-0.9-3.3-3.1-3.1c-0.7,0.1-2.3,0.7-2,3.9l0.5,4.8h0.4l-0.1-1.3L20.7,99.3z M10.2,97.2
	c-0.2-1.6,0.3-2.3,1.9-2.5c2.2-0.3,2.5,0.9,2.7,2.7l0.1,0.9l-4.4,0.5L10.2,97.2z"/>
<polygon class="st1" points="34,131.3 34.8,132.4 35.1,132.2 33.3,129.7 33,129.9 33.8,130.9 25.5,136.4 30.8,125.3 30.5,125 
	21.5,131.1 20.8,130.1 20.5,130.2 22.3,132.7 22.6,132.6 21.8,131.4 28.1,127.2 24.1,135.5 26,138.2 26.3,138 25.5,136.9 "/>
<path class="st1" d="M22.7,108.6L23,110l0.4-0.1l-2-8.4l-3.1,0.6l0.1,0.5c2.5-0.2,2.9,0.5,3.4,2.6l0.5,1.9l-5,1.2
	c-0.4-1.7-0.3-2.3,1.4-2.9l-0.1-0.4l-4.1,1l0.1,0.4c1.8-0.2,1.9,0.3,2.3,1.9l-4.6,1.1l-0.5-2.1c-0.4-1.4-0.3-2.5,1.6-3.2l-0.1-0.4
	l-2.6,0.6l1.9,8.1l0.4-0.1l-0.4-1.4L22.7,108.6z"/>
<polygon class="st1" points="59.6,152.8 60.7,153.4 60.9,153 58,151.4 52.1,157.4 53.9,149.2 51.1,147.6 50.9,148 52,148.6 
	47.2,157.5 46.1,156.9 45.9,157.3 48.5,158.7 48.7,158.3 47.6,157.7 52.3,149 50.1,159.6 50.4,159.8 58.1,152.2 53.4,160.9 
	52.3,160.3 52.1,160.7 55.7,162.6 55.9,162.3 54.8,161.7 "/>
<polygon class="st1" points="38.7,135.7 28.3,140.5 27.5,139.7 27.2,140 29.3,142.3 29.6,142 28.6,140.9 36.4,137.3 32.3,144.9 
	31.4,143.9 31.2,144.2 34,147.3 34.3,147 33.5,146.1 38.9,136 "/>
<path class="st1" d="M46.5,34.2l-0.8,0.7L36,29.2l-0.5,0.5l4.5,10.5l-0.9,0.8l0.3,0.3l2.4-2.1l-0.3-0.3l-1,0.9l-1.6-3.5l2.3-2.1
	l3.2,1.9l-1,0.9l0.3,0.3l3.1-2.8L46.5,34.2z M38.9,35.7l-1.9-4.3l4,2.4L38.9,35.7z"/>
<path class="st1" d="M61.5,153.2l-0.1,0.4l1.4,0.5l-3.4,9.5l-1.4-0.5l-0.1,0.4l7.9,2.9l1.2-2.8l-0.4-0.2c-1.2,2.1-1.9,2.1-4,1.4
	l-1.9-0.6l1.7-4.7c1.5,0.6,2,1,1.6,2.7l0.4,0.1l1.4-3.9l-0.4-0.1c-0.8,1.6-1.3,1.4-2.9,0.8l1.6-4.4l2,0.7c1.4,0.5,2.2,1.1,1.9,3.1
	l0.4,0.1l0.9-2.5L61.5,153.2z"/>
<path class="st1" d="M161.6,123.7l-9.1-4.8l0.6-1.3l-0.4-0.2l-3.9,7.7l2.6,1.7l0.2-0.4c-1.9-1.6-1.9-2.3-0.8-4.3l0.9-1.8l4.5,2.4
	c-0.7,1.4-1.3,1.9-2.9,1.2l-0.2,0.3l3.7,1.9l0.2-0.3c-1.5-1-1.2-1.5-0.5-3l4.2,2.2l-1,1.9c-0.6,1.3-1.5,2-3.3,1.4l-0.2,0.3l2.4,1.3
	l3.9-7.4l-0.4-0.2L161.6,123.7z"/>
<path class="st1" d="M36.4,40.1c0.8,1.3,1.2,3,0.2,4.2c-1.7,2-3.4,1-5.6-0.8c-0.6-0.6-2.4-2.1-3-3.4c-0.3-0.6-0.3-1.7,0.4-2.5
	c1.1-1.3,2.7-1.2,4.1-0.5l0.3-0.3l-2.1-1.9l-0.2,0.2v0.7c-0.9,0.3-1.6,0.6-2.2,1.3c-1.5,1.9-1.2,5.3,1.3,7.4c2.4,2,5.6,2.4,7.5,0.1
	c0.6-0.7,0.9-1.6,0.9-2.6l0.8,0.1l0.3-0.4l-2.3-1.9L36.4,40.1z"/>
<path class="st1" d="M104.1,85.1c0-0.1,0-0.3-0.1-0.4c-0.2-0.3-1.2-1-1.3-0.9c-0.1,0.1,0.1,1.2,0.5,1.6
	C103.7,85.8,104.1,85.3,104.1,85.1z"/>
<path class="st1" d="M89.4,26.1c-34.8,0-63.1,28.2-63.1,63.1c0,3.8,0.4,7.4,1,11c1-1.2,2.7-2,3.8-1.9c0.3,0,0.6,0.2,0.8,0.1
	c-0.2-0.5-1.4-0.6-1.9-0.8c-0.6-0.4,1.6-1.7,2.1-1.6c0.4,0.3,2.8,3,5.6,5.6c1.7,1.6,1.7,4.4,2,5.8c-0.1,0.5-7.8,0.9-10.6,1
	c0.1,0.2,0.1,0.4,0.2,0.6c0.2,0,0.4,0.1,0.6,0.1c0.5,0.2,0.8,0.2,1,1.2c0.6,3.4,2.7,5.1,4.2,6.2c1.1,1,1.2,2.8-0.8,3.8
	c0.2,0.2,0.3,0.5,0.5,0.7c1.5-0.5,3.6-1.1,3.5-1.1l0.1-1.9c0.4,0.2,0.7,0.2,1.9-0.2c0.6-0.2,7-2,7.8-2.3c0.4-0.2,0.8-0.5,1.1-0.8
	c0.1-0.1,0.6,0,0.9,0c0.6-0.1,1.3-0.3,1.8-0.4c0.8-0.2,7.2-2,7.2-2s0.2,0,0.2,0.2c0,0.1-0.1,0.9-0.2,1.7c-0.1,0.6-0.4,0.6-0.4,0.6
	s-18.2,4.4-19.5,4.6c-0.1,0-0.3,0.3-0.3,0.5c0,0.2,8.8-2.2,15.1-2.6c1.5-0.1,3.5,0.6,2.3,4.8c-0.2,0.6-1.1,4.2-2.7,7.8
	c-0.7,2-1.8,4-2.9,5.4c-0.8,1.1-1.8,1.9-2.6,2.1c0.4,0.3,0.6,0.6,1,0.8c0.8-0.5,1.7-1.3,2.3-2.2c1.2-1.6,2-3.4,2.8-5.3
	c0.3-0.9,0.6-1.9,0.9-2.9c0.3-0.9,0.6-1.9,0.8-2.9c0.2-0.7,0.5-1.9,0.5-1.8c0.4-0.4-0.1,2.7-0.2,3.7c-0.2,2.3-0.5,3.5-0.7,5.8
	c-0.2,1-0.3,1.9-0.5,3c-0.1,0.5-0.1,1.1-0.4,1.6c-0.6,1.1-3.6,1.9-3.5,1.9c0,0,3.1,0.3,3.7,0.4c1.1,0.2,1.2,0.9,1.2,1.3
	c0,0,0.1,0.2-0.8,0.4c0,0-0.6,0.2-1.7,0.4c10.1,6.9,22.4,11,35.6,11c14.4,0,27.8-4.9,38.4-13.1c-0.8,0-4.7,0-4.5-0.5
	c0,0,0.2-1.4,1.6-1.5c1.5-0.1,1.4-1.2,1.4-1.5c1.1,0.7,2.8,2.2,2.8,2.2l-0.7,0.9c0.6-0.5,1.2-0.9,1.8-1.4c-3.9-1.7-6.4-4.8-8.1-4.9
	c-0.7-0.3-0.6-1.1-0.5-2.6c0-1.6,0.1-7.3,0.1-9.3c0.2-2.4,2-5.5,3.4-5.3c0.6,0.1,5.6,0.5,6,0.5c0.5,0.1,0-0.4-0.4-0.5
	c-0.5,0-8.6-1.4-10.5-1.8c-0.3,0-0.4-0.7-0.4-1.3c0-0.7,0.2-1,0.3-1.4c0.1-0.2,0.3-0.2,0.3-0.2l5.8,0.9c-0.3,0.1,0.1,0.6,1.2,0.8
	c0.5,0.1,2,0.1,1.9,0.1c2.9,0.6,2.6,1.6,4.7,1.4c1.1,0.6,10.6,3.8,11.3,3.7c0.2,0,0.4-0.1,0.5-0.1c0.1-0.3,0.3-0.6,0.4-0.8
	c-0.3,0-0.6-0.1-1.2-0.1c-0.5,0.1-8.1-2.4-9-2.8c-0.4-0.2-0.8-0.4-1.2-0.6c-0.5-0.3-0.1-0.6,0.1-0.9c0.3-0.5,0.4-1.2,0.5-1.8
	c0.1-0.4,0-0.5,0.1-0.6c0,0,0.1,0,0.2,0c1.3,0,3.1,0.5,4.3,0.6c0.6,0.1,3.1,1,3.4,0.6c0.1-0.1-0.3-0.5-0.3-0.6c0.2-1,0.6-2.2,1-3.2
	c0.2-0.6,0-2,0.6-2.2c1.8-0.5,3.9-0.2,4.7-0.1c0,0,0.6,0.1,0.6,2c0.4-1,0.6-1.9,0.8-3l-5.9,0.6c-0.6,0.1-1.5,0.3-2.1,0.4
	c-0.8,0.1-1.5,0.2-2.3,0.4c-0.5,0.1-0.7,0.1-0.6-0.4c0.1-0.8,0.5-1.8,0.6-2.3c0.2-0.7,0.2-0.7,0.5-1.4c0.6-1.3,1.1-3.9,1.9-4.2
	c0.2,0.3,1.3-0.7,1.8-1.1c1.6-1.4,4.7-2.8,3.7-3.4c0.8-0.5,1.4,0.6,1.7,1.3c-0.3,0.1-0.8,0.2-1,0.5c-0.4,0.5,1.7-0.6,3.1,1.8
	c0.3-2.4,0.5-4.8,0.5-7.3C152.7,54.4,124.4,26.1,89.4,26.1z M50.5,97.1c0.4,1.1-0.3,5-0.5,5.6c-0.1,0.4-0.4,1.3-0.7,1.4
	c-0.2,0-0.6-0.1-0.8-0.2c-0.4-0.2-0.8-0.5-1.1-0.7c0.3-0.5,0.6-0.6,0.5-1.4c-0.1-0.4-0.4-1.9,0.3-2.7c0.4-0.6,0.6-1.6,0.5-2.2
	c0-0.3-0.2-0.6-0.3-0.8c-0.2-0.4-0.6-0.5-0.8-0.6C47,95,47,94.7,47.2,94.1c0-0.3,0.7,0.1,1.1,0.4C49,95.1,49.9,94.9,50.5,97.1z
	 M46.7,96.5c1-0.8,1.8,1.4,0.9,2.2c0-0.5,0-0.8-0.3-1.2C47.2,97,46.8,96.9,46.7,96.5z M38.2,99.1c-0.3,0.1-0.6,0.5-0.8,0.5
	c-0.9-0.2-3.7-3-4.4-3.6c0.2-0.3,0.8-0.8,1.1-1c0.6-0.3,0.6-0.3,1.2-0.4c0.4,0,1-0.1,1.6-0.2c0.5-0.1,0.7,0.6,1.2,0.5
	c0.4-0.1-0.4-0.6-0.5-0.6c-0.6-0.5-0.2-2.1,0.4-2.5c0.6-0.4,0.8,0.1,0.9,0.6c0.1,0.5,0.3,0.9,0.8,1c0.4,0,0.7-0.1,1-0.3
	c0.3-0.2,0.3-0.4,0.5-0.6c0.2-0.3,0.4-0.1,0.6-0.2c0.2,0,0.5-0.3,0.6-0.5c0.3-0.3,0.4-0.5,0.7-0.7c-0.2,0.1-0.4,0.2-0.4,0.2
	c-0.2,0.1-0.8,0.6-1,0.5c-0.1-0.2,0-0.6-0.4-0.4c-0.2,0.1-0.2,0.4-0.3,0.6c-0.2,0.4-0.8,0.9-1.3,0.9s-0.5-0.5-0.6-0.8
	c-0.2-0.4-0.6-0.7-1-0.7c-0.3,0-0.6,0.2-0.9,0.6c-0.4,0.5-0.4,1.1-0.3,1.8c0.1,0.6,0.2,0.5-0.3,0.6c-0.4,0-1.1,0.2-1.5,0.3
	c-0.4,0.1,0.1-0.4-0.2-0.4l-0.6,0.3c0.4-1.3-0.5-2.7,0-3.7c0.3-0.8,0.6-1.9,1-2.6c1.8-2.2,3.1-2.4,4.4-2.7c0.7-0.2,0.9,0,1.6,0
	c1.3,0,2.4,0.3,2.9,0.5c1.1,0.6,2.2,1.5,3,2.5c0.5,0.7,1.3,3.1-0.4,2.7c-0.3-0.1-0.3-0.1-0.5-0.3c-0.1-0.1-0.2-0.5-0.4-0.4
	c-0.2,0.1,0.1,0.4-0.3,0.5c-0.2,0-0.5-0.1-0.6-0.1c-0.3,0-0.3,0-0.5-0.3c-0.2-0.2-0.3-0.5-0.5-0.2c-0.2,0.1-0.2,0.4-0.2,0.6
	c0.6-0.1,1.1-0.1,1.7,0c0.3,0.1,0.6,0,0.8,0.2c0.3,0.2,0.6,0.7,0.6,1c0.2,0.4,0.1,1-0.1,1.4c0,0.1,0,0.2,0,0.3
	c0,0.2-0.5-0.2-0.5-0.2c-0.6-0.4-1.5-0.5-2-0.5c-0.4,0-0.6,0-0.6,0c-0.2,0-0.3,0.1-0.3,0.3c0,0.2,1.9,0.3,2.3,0.6
	c0.4,0.1,0.5,0.5,0.5,0.8c0,0.4,0,0.6-0.1,1c-0.1,0.6-0.2,1.2-0.3,1.8c-0.1,1-0.5,1-0.5,1c-0.2,0-0.5-0.3-0.8-0.4c0,0-0.2-0.1-0.3,0
	c-0.2,0.2-0.3,0.5-0.3,0.6c0,0.1,0,0.2-0.1,0.3c-0.3,0.2-0.7-0.3-1-0.1c-0.3,0.2,0.1,0.4,0.2,0.6c0.3,0.5-0.2,0.4-0.5,0.6
	s-0.5,0.7-0.8,0.7c-0.1,0-0.2,0-0.3,0c-0.5-0.2-0.8-0.5-1.2-0.7C40,99.8,38.9,98.9,38.2,99.1z M48.9,114.1c-0.8,0.7-2.1,1-4.1,1.6
	c-1.9,0.6-4,1.4-4.4,1.5c-0.6,0.2-1.2,0.3-1.9,0.3c-0.7,0-1.5-0.2-2.2-0.7c-1.9-1.6-3.3-3.1-3.9-5.6c-0.1-0.2-0.1-1.5-0.2-1.9
	c2.7,0.6,6.8-1,7-0.8c0.2,0.2,0.1,1.9,0.3,2.4c0.1,0.3,0.5,1.2,0.5,1.5c-0.1,0.3-0.3,0.5-0.4,0.6c-0.2,0.3,0.5-0.1,0.6-0.2
	c0.6-0.5,1.3-0.6,2-0.7c0.8-0.2,1.6-0.4,2.4-0.6c0.7-0.2,1.4-0.4,2-0.5c0.3-0.1,0.6-0.1,0.8-0.2s0.6-0.2,0.8-0.1
	c0.2,0.1,0.3,0.2,0.4,0.4c0.4,0.6,0.5,1.5,0.5,1.5C49.3,113.1,49.4,113.8,48.9,114.1z M48.9,109.7c-1.1,0.3-2.1,0.5-3.2,0.6
	c-0.7,0.2-1.4,0.3-2,0.5c-0.3,0.1-1.5,0.6-1.4,0.3c0.2-0.6,0.7-1.3,1.1-1.9c0.7-0.9,1.7-3.3,2-4.1c0.3-0.6,0.6-1.2,0.9-1.7
	c0.5-0.6,0.6-0.2,1.2,0.2c0.6,0.5,1.6,0.9,2.3,1c0.6,0.1,0.5,0.5,0.5,0.8C50.1,106.5,49.1,110,48.9,109.7z M57.2,112.3
	c-0.2,0.4-1.6,0.5-2,0.6c-0.6,0.2-1.2,0.1-1.5,0.1c-0.6,0.1-1.4,0.6-2.2,0.7c-0.2,0.1-1.5,0.3-1.7,0c-0.1-0.2,0.2-0.8,0.2-1.1
	c0-0.6,0-1-0.3-1.6c0.5-0.1,0.9,0.1,1.4,0.2c0.6,0.1,1,0.2,1.6,0.3c1.7,0.3,1.9,0.3,2.6,0.4C56.9,112.1,57.6,111.8,57.2,112.3z
	 M128.6,102.2c0.6-2.5,3.1-5.3,4.5-5c0,0-0.6,1.8-0.6,2.1l-1.9,5.4c-1.6,2.4-3,4.3-3.1,4.5C127.4,108.1,127.7,105,128.6,102.2z
	 M129,108.2c0.2-0.3,1.3-2.1,1.4-2l2,1c-0.3-0.1-0.7,1.7-0.8,1.8c-0.4,0.6-1.2,0.6-1.8,0.7c-0.6,0.1-1.5,0.1-2,0.5
	c-0.2,0.1-0.4,0.3-0.6,0.1c-0.2-0.2-0.1-0.5,0-0.6C127.6,109,128.9,108.9,129,108.2z M96.2,95.3c2.6,1.4,8.3-8.3,11-9.9
	c1.2-0.7,4.2-1.9,3.4-1c-0.2,0.2-0.5,0.4-0.6,0.6c-1.9,1.9-3.2,3.2-4.8,5.8c-0.1,0.2-0.6,0.8-0.6,1c0.2,0.3,0.6-0.3,0.6-0.4
	c0.1,0,0.1-0.1,0.2-0.2c1.2-1.6,2.5-3.2,4-4.7c1.1-1.2,2.3-2.2,3.7-3.1c0.4-0.2,0.7-0.5,1.2-0.6c0.6-0.1,0.3,0.2,0.2,0.6
	c-0.1,0.5,0.2,0.9,0.6,2c0.6,1.1,1.4,2.3,1.4,3.1c0,0.1,0,0.2,0,0.3c-0.2,0.9-0.2,1.7-0.2,2.2c0,0.1,0,0.1,0,0.2
	c-0.2-0.1-0.4-0.3-0.6-0.3c-0.2,0-0.4,0-0.6,0c-3.5,0.1-7,0.7-10.5,1.9c-1.5,0.5-3,1-4.4,1.7c-0.6,0.3-1.2,0.6-1.9,0.9
	c-0.3,0.2-0.6,0.3-0.8,0.5c-0.3,0.1-0.7,0.4-1,0.4c-0.6,0.1-0.9-0.4-1.3-0.6c-0.4-0.4-0.7-0.7-1.1-1.1c-0.5-0.6-0.6-1.6-0.8-2.5
	c-0.2-0.6-0.4-0.9-0.5-1.2c0.1,0,0.7-0.1,0.8-0.1c1.1-0.2,1.3-0.7,1.3-1.3c0-3.1,0.2-4.7,0.3-5.3c0.1-0.6,1.8-1.6,2.4-1.8
	c0.5-0.1,0.6-0.2,0.8-0.2c0,0,0.4,0.4,0.6,0.3c0.6-0.1,0.7-0.6,0.7-0.6c0.2-0.2,0.7-0.5,1.2-0.6c0.6-0.3,1.7-0.6,1.9-1
	c0.5,0.1,1.1-0.6,1.2-0.5c0.6,0.8,3.2,4.4,1.6,5.8c-1.2,1.1-3.1,3.6-5.6,6.7c-1.9,2.4-3.1,2.6-3.6,2.7
	C96.2,95.2,95.8,95.3,96.2,95.3z M85.1,75.9c-0.2-0.1-0.2,0-0.3,0.2c-1.1-0.6-2.3-2-2.4-2.5c-0.1,1.2,1.8,2.7,2.3,3.1
	c-0.1,1.1-0.2,3.2-0.3,5.5c-0.1,0.5-0.6-0.3-1.3-0.5c-0.3-0.1-1.4-0.3-1.9-0.4c-0.6-0.1-0.7-0.2-1.1-0.5c0.1-0.3,0.3-0.8,0.6-1.5
	c0.9-2.2,2.6-3.6,2.6-3.6c0-0.2-0.5-0.1-0.6,0c-1.9,1.9-2.9,4-3.1,4.9h-0.1c-0.2,0-0.3,0-0.4,0c-0.1,0-0.1,0-0.2,0
	c-0.4-0.1-1.5-0.7-1.9-1.2c-0.6-0.5-1.5-1.3-1.8-1.6c-0.1-0.1-0.1-0.1-0.1-0.1c0-0.1,0-0.1,0-0.2c0.9-2.3,5.6-4.5,7.3-5.3
	c0.6-0.2,1.9-0.6,2-0.6c0,1,0.9,1.8,2,2.4c1.1,0.6,2.4,1,3.5,1c2.4,0,3.8-1.5,4.3-1.9c0.2-0.2,0.5-0.5,0.7-0.7l0.3-0.3
	c0.1-0.2,0.4-0.3,0.5-0.3c0.1,0,0.2,0,0.2,0c0.2,0.1,1.1,0.6,1.7,1l0.2,0.1c1.3,0.3,3.1,1.5,4.4,2.9c0.6,0.6,1.2,1.5,1.6,2
	c0.2,0.3,0.5,0.6,0.6,0.8c0.1,0.3-0.6,0.6-0.6,0.6s-1.9,0.9-2.5,1.1c-0.7,0.3-2,1-2.1,1c-0.3-0.8-1.9-4.2-3.6-5.1
	c-0.1-0.1,0,0.4,0,0.4c1.2,1,1.9,2.3,2.4,3.3c0.3,0.6,0.5,1.1,0.6,1.4c-0.3,0-0.6,0.1-0.7,0.2c0,0-0.5,0.1-0.8,0.2
	c-0.4,0-0.7,0.1-0.7,0.1l-0.4,0.1c-0.2,0-0.5,0.1-0.6,0.2c-0.2-2-0.4-4-0.6-5.7c0.6-0.5,2.3-1.9,2.6-3c0.1-0.1,0-0.2,0-0.3
	c-0.1,0.5-1.5,2.1-2.6,2.8c0-0.2,0-0.5-0.1-0.6c-0.1-0.2-0.1-0.3-0.2-0.3c-0.2,0.1-0.5,0.3-0.5,0.5c0.5,2,0.9,7.5,0.9,7.5
	c0.1,1,0.1,2.1,0.1,3.1c0,1.2,0,2.3-0.1,3.2c0,0-0.1,0.6-0.6,0.6c-0.4,0.1-1.9,0.3-2.1,0.3c-1,0-2.6,0.1-3,0.1
	c-1.5-0.1-2.9-0.6-3.3-1.2c-0.2-0.3-0.3-2.3-0.4-4.4c0-0.6,0.3-8.1,0.4-8.7C85.5,76.2,85.3,76,85.1,75.9z M100.7,42.5
	c0.6,0,1.3,0.3,1.3,0.9c-0.4,0-0.6-0.2-1-0.1c-0.3,0.1-0.6,0.4-0.9,0.6c-0.7,0.4-1.4,0.6-1.9,0.6s-0.7-0.3-0.8-0.5v-0.1v-0.1
	c0-0.1,0.7-0.3,0.9-0.5c0.3-0.3,0.6-0.7,1-0.8c-0.1,0.2-0.1,0.3-0.1,0.5C99.7,42.7,100.1,42.4,100.7,42.5z M97.9,46.6
	c0.4,0,0.6,0.1,0.9,0.2c0.1,0,0.3,0.1,0.4,0.1c0,0,0.1,0,0.2,0c0.4,0,0.6-0.2,1-0.5c0.1-0.1,0.2-0.1,0.3-0.2
	c0.3-0.2,0.6-0.4,1.1-0.4c0.2,0,0.4,0,0.6,0.1c0.2,0.1,0.4,0.3,0.6,0.5c0.1,0.1,0.3,0.2,0.4,0.3c0.7,0.4,1.5,0.6,2.3,0.6
	c0.1,0,0.2,0,0.3,0v0.3c-0.3,0.1-0.6,0.1-0.9,0.2c-0.5,0.1-1,0.2-1.5,0.2c-0.6,0-1-0.2-1.3-0.6c-0.3-0.3-0.5-0.5-0.7-0.5
	c0,0-0.1,0.1-0.2,0.1c-0.2,0.1-0.4,0.4-0.6,0.6c-0.3,0.3-0.5,0.6-0.8,0.6c-0.2,0-0.4,0-0.6,0c-0.4,0-0.7,0-1-0.1
	c-0.3-0.1-0.5-0.1-0.7-0.1c-0.4,0-0.6,0.1-0.8,0.2l-0.3,0.1v-0.3c0-0.1,0.2-0.9,0.6-1.3C97.4,46.6,97.6,46.6,97.9,46.6z M105.2,52.6
	l-0.5,0.2c-0.2,0.1-0.4,0.1-0.6,0.2c-0.6,0.2-1,0.4-1.5,0.4c-0.4,0-0.6-0.1-1.1-0.3c-0.2-0.1-0.4-0.3-0.6-0.6
	c-0.3-0.4-0.6-0.6-0.9-0.8c-0.1,0-0.1,0-0.2,0c-0.2,0-0.5,0.1-0.6,0.2C99.1,51.9,99,52,98.8,52c-0.2,0.1-0.3,0.1-0.5,0.1
	c-0.4,0-0.7-0.1-1-0.4c-0.2-0.1-0.4-0.3-0.5-0.5c-0.1-0.1-0.3-0.3-0.4-0.4c-0.1-0.1-0.3-0.1-0.4-0.2c-0.2-0.1-0.4-0.2-0.6-0.4
	c-0.1-0.2-0.2-0.4-0.1-0.6c0-0.3,0.2-0.5,0.5-0.6c0.1,0,0.2,0,0.3,0c0.6,0,0.9,0.5,1.3,0.9c0.3,0.3,0.6,0.6,0.8,0.7h0.1
	c0.1,0,0.3-0.2,0.5-0.3c0.2-0.2,0.6-0.4,1-0.4c0.2,0,0.3,0,0.5,0.1c0.8,0.3,0.9,0.6,1,1c0,0.2,0,0.3,0.2,0.5
	c0.1,0.1,0.2,0.1,0.3,0.2c0.6,0.4,1,0.4,1.5,0.4c0.4,0,0.7,0.1,1.2,0.2H105.2z M96.7,43.8c-0.6,4.3-6.2,9.4-6.2,9.4
	c-0.1,0.2-0.4,0.2-0.6,0c0,0-6.3-5.9-6.6-9.4c-0.4-4.2,3.2-4.4,3.2-4.4c2.5-0.2,3.5,1.4,3.5,1.4c2-1.1,3.6-1.5,4.5-1.1
	C96.7,40.4,97,42.5,96.7,43.8z M92.1,65.8c-0.2,0-0.2,0.3-0.2,0.3c0,0.3,0,0.6,0,0.8c0,0-0.1,4.5-3.7,4.5c-1,0-2.4-0.5-3.4-1.5
	c-0.4-0.4-0.9-0.9-1.4-1.6c-0.6-0.7-1.3-1.9-1.3-1.9c0.2-0.5,0.6-0.7,1.1-0.8c0.3-0.1,0.9-0.2,1.2-0.1c0.5,0.2,0.8,0.7,1,1.2
	c0.1,0.3,0.2,0.7,0.4,0.8c0.1-0.4-0.1-0.9-0.3-1.2c-0.3-0.6-0.6-0.9-1-1.4c-0.2-0.3-1,0-1.3,0.1c-0.5,0.1-0.8,0.4-1.1,0.7
	c-0.1,0.2-0.1,0.4-0.3,0.2c-0.2-0.1-0.3-0.3-0.3-0.5c-0.1-0.4-0.2-0.7-0.2-1.1c-0.1-0.5-0.2-0.8-0.2-1.2s0.2-0.7,0.3-1.1
	c0.1-0.5,0-0.8,0.3-1.2c0.2-0.3,0.3-0.6,0.5-0.9c0.1-0.3,0.2-0.2,0.4-0.2s0.4-0.1,0.6-0.1c0.6-0.2,1.3-0.5,1.9-0.4
	c0.4,0.1,0.7,0.1,1.1,0c0.3,0,0.3,0,0.5,0.1c0.2,0.1,0.4,0.1,0.6,0.1c0.5,0,0.6,0.2,0.9,0.4c0.4,0.2,0.7,0.1,1,0.4
	c0.4,0.3,0.7,0.6,1.1,0.8c0.2,0.2,0.5,0.3,0.6,0.6c0.1,0.3,0.3,0.5,0.4,0.6c0.4,0.5,0.6,1,0.7,1.6c0.1,0.5,0.6,1.1,0.6,1.6
	c0.2,2.3,0.3,3.9,0.1,5.5c-0.3,1.9,0.2,1.2,0.1,1.4c0.2-0.2,0.6-0.4,0.7-0.5c0.1-0.1,1-0.4,0.7,0.1c-0.2,0.3-0.3,0.5-0.5,0.6
	c-0.3,0.5-1.8,1.7-3.7,1.7c-0.8,0-2-0.4-3.1-0.9c-1-0.6-0.7-0.8-0.6-0.8c0.2,0,1,0.6,1.8,0.6c1.9,0,3.7-3.1,3.7-6.3
	c0,0,0-0.3,0.3-0.5C92.3,66.4,92.3,65.8,92.1,65.8z M93.4,66.7c0.4-1.4-0.1-1.9-0.6-2.9c-0.3-0.4-0.6-0.9-0.6-1
	c-0.2-0.2-0.6-0.9-0.9-1.3c0.2,0,0.6-0.1,0.7-0.1c0.1,0,0.4-0.1,0.5-0.3c0.1-0.1,0.1-0.5,0-0.4C91.6,61.1,91,61,90.7,61
	c-0.2,0-0.5-0.3-0.6-0.4c-0.1-0.1-0.6-0.2-0.6-0.4h0.1c0.1-0.1,1.1-0.1,0.8-0.6c-0.1-0.2-0.3,0-0.5,0s-0.4-0.1-0.6-0.2
	c-0.2,0-0.5-0.1-0.6-0.1c-0.1,0-0.2,0.1-0.4,0.1c-0.4,0.1-0.6-0.2-0.8-0.4c-0.4-0.2-0.9-0.2-1.3-0.1c0.2-0.2,0.6-0.1,0.7-0.4
	c0.1-0.1,0.1-0.4-0.1-0.4c-0.1,0-0.2,0.2-0.3,0.3c-0.3,0.3-0.6,0.1-0.9,0.2c-0.3,0-0.5,0.3-0.8,0.2c0.1-0.1,0.4-0.2,0.5-0.3
	c0.1-0.1,0.2-0.2,0.3-0.3c0.1-0.1,0.1-0.3,0-0.4c-0.1-0.1-0.2,0.1-0.3,0.2c0,0.1-1.4,0.7-1.8,0.8c-0.3,0.1-1.3,0.5-1.6,0.2
	s0-1,0-1.3c-0.6,0-0.6,1-0.6,1.5c0,0.2,0,0.5-0.1,0.6c0,0.1,0,0.3,0,0.5s-0.1,0.2-0.2,0.4c-0.2,0.3-0.2,0.6-0.6,0.7
	c-0.1,0.1-0.5,0.1-0.5,0.2c0,0.2,0.2,0.2,0.3,0.2c0.1,0,0.4-0.3,0.5-0.2c0.3,0.2-0.5,1.2-0.6,1.3c-0.2,0.1-0.6,0.3-0.5,0.6
	c0.2,0,0.4-0.3,0.6-0.4c0,0.1-0.1,0.6,0,0.7c0.1,0.3,0.1,0.5,0.1,0.7c0,0.4,0.1,0.6,0.2,0.8c0.1,0.2,0.4,0.5,0.4,0.7
	c-0.3-0.1-0.9-0.6-1-0.9c-0.2-0.5-0.4-1.5-0.5-1.8c-0.8-2.7-0.6-5.6,2.1-7c1.5-0.7,2.7-1.5,4.4-1.5c1.3,0,2.7,0.4,3.8,1.2
	c0.8,0.6,0.9,0.8,1.9,1.3c1,0.5,1.8,1.6,2.2,2.7c0.4,1.1,0,1.9,0.4,3c0,0.1,0.1,0.2,0.1,0.3C94.8,64.9,94.2,67,93.4,66.7z
	 M83.5,50.1c0.1-0.5,0.3-1,0.6-1c0.2,0,0.4,0.2,0.6,0.4c0.3,0.4,0.8,1.3,0.7,1.8c0,0.2-0.1,0.4-0.2,0.4L85,51.6L85,51.5
	c0,0-0.1-0.3-0.5-0.3c-0.3,0-0.7,0.1-1.5,0.8c-0.2,0.2-0.5,0.2-0.6,0.2c0,0-0.1,0-0.2,0s-0.1,0-0.2,0c-0.1,0-0.2,0-0.3,0
	c-0.3,0.2-0.4,0.5-0.6,0.6c-0.1,0.1-0.7,0.2-0.6,0.1c0-0.1,0.1-0.1,0.1-0.2c0.2-0.2,0.3-0.4,0.4-0.7c0.1-0.3,0.2-0.6,0.6-0.7
	c0.2-0.1,0.5-0.1,0.7-0.1h0.1c0.4,0,0.7,0,0.9-0.3C83.3,50.7,83.4,50.4,83.5,50.1z M82.5,47.8c-0.2,0.1-0.3,0.2-0.5,0.4
	c-0.3,0.3-0.6,0.6-1,0.6c-0.1,0-0.2,0-0.3,0c-0.2-0.1-0.5-0.2-0.6-0.4C80,48.2,79.8,48,79.6,48c-0.1,0-0.2,0-0.3,0.2
	c-0.2,0.3-0.3,0.6-0.4,1c-0.1,0.6-0.4,1.5-1,1.6c-0.2,0.1-0.4,0.1-0.5,0.1c-0.2,0-0.3-0.1-0.4-0.1c-0.2-0.1-0.3-0.1-0.5-0.1
	c-0.1,0-0.2,0-0.4,0c-0.9,0.2-1.2,0.7-1.2,0.7l-0.3-0.1c0.1,0,0.2-0.7,0.6-1.2c0.3-0.3,0.7-0.3,1.3-0.4c0.4-0.1,0.7-0.1,0.8-0.2
	c0-0.1,0.1-0.4,0.2-0.6c0.1-0.6,0.4-1.5,0.9-1.8c0.2-0.1,0.5-0.2,0.7-0.2c0.2,0,0.5,0.1,0.6,0.1c0.2,0.1,0.4,0.1,0.6,0.1
	c0.1,0,0.2,0,0.3,0c0.1,0,0.3-0.2,0.5-0.3c0.3-0.2,0.6-0.5,0.9-0.5c0.1,0,0.1,0,0.2,0c0.5,0,0.6,0.3,0.6,0.5
	C83,47.1,83.1,47.5,82.5,47.8z M105.8,43.1l0.2,0.4l-0.4-0.1c-0.1-0.1-0.3-0.1-0.4-0.1c-1,0-1.6,1.2-2.6,1.2c-0.1,0-0.3-0.1-0.4-0.1
	c-0.2-0.1-0.7-0.4-0.7-0.6v-0.1h0.1c0.2,0,0.3,0,0.4,0.1c0.1,0.1,0.1,0.1,0.2,0.1c0.3-0.1,0.6-0.3,0.7-0.6c0.2-0.2,0.3-0.4,0.5-0.5
	c0.3-0.2,0.7-0.4,1.2-0.4C105,42.5,105.4,42.7,105.8,43.1z M100.5,38c0.2,0,0.4,0.1,0.6,0.1c0.5,0.1,1.1,0.2,1.6,0.2
	c0.4,0,0.5-0.1,0.5-0.1h0.3c0,0.7-1.4,0.9-1.7,0.9h-0.1c-0.2,0-0.3,0-0.5,0c-0.1,0-0.3,0-0.4,0c-0.5,0-0.8,0.4-1.1,0.7
	c-0.2,0.1-0.3,0.3-0.4,0.4c-0.5,0.5-0.9,0.7-1.5,0.7c-0.2,0-0.3-0.1-0.5-0.1c-0.3-0.1-0.5-0.2-0.5-0.5c-0.1-0.3,0.1-0.6,0.4-0.8
	s0.6-0.2,0.7-0.2h0.3c0.1,0,0.2,0,0.3,0c0.2,0,0.4-0.1,0.5-0.2c0.1-0.2,0.2-0.3,0.3-0.4C99.7,38.6,99.9,38.2,100.5,38z M96.2,35.6
	c-0.1-0.4-0.4-0.8,0-1.3c0.2-0.4,0.6-0.4,0.9-0.4c0.2,0,0.4,0,0.6-0.1c0.4-0.2,0.5-0.5,0.6-0.9c0-0.1,0.1-0.3,0.1-0.4
	c0.1-0.4,0.3-0.7,0.6-1s0.3-0.3,0.4-0.3h0.1l0.1,0.1v0.1c-0.2,0.3-0.2,0.6-0.3,0.9c0,0.2-0.1,0.3-0.1,0.5c-0.1,0.1-0.1,0.2-0.1,0.4
	c-0.1,0.3-0.1,0.6-0.3,0.9c-0.3,0.5-0.6,0.5-1,0.5c-0.3,0.1-0.5,0.1-0.6,0.2c-0.1,0.1,0.1,0.6,0.2,0.9c0.2,0.5,0.3,0.8,0.3,1.1
	c-0.1,0.6-0.6,0.8-0.9,1c-0.1,0.1-0.2,0.1-0.3,0.2c-0.2,0.1-0.3,0.2-0.4,0.4c-0.1,0.2-0.3,0.4-0.5,0.6c-0.1,0.1-0.6,0.2-0.8,0.2
	c-0.2,0-0.3,0-0.4-0.1C94.1,39,94,38.9,94,38.8c0-0.5,0.6-1,1.6-1.7c0.2-0.2,0.5-0.4,0.6-0.5c0.1,0,0.1-0.1,0.1-0.1
	C96.4,36.3,96.2,35.9,96.2,35.6z M91.9,36.1c0.3-0.3,0.5-0.6,0.6-0.7c0-0.4-0.1-0.6-0.2-0.9c-0.1-0.4-0.3-0.8-0.2-1.4
	c0.1-0.6,0.7-0.6,1.3-0.7c0.6-0.1,0.9-0.1,1-0.5c0.1-0.6-0.5-1.5-0.6-1.9c-0.1-0.2-0.2-0.2-0.1-0.3v-0.1h0.1c0.1,0,1.1,0.6,1.5,1.9
	c0.2,0.7,0.1,1.2-0.2,1.6c-0.4,0.4-0.9,0.5-1.4,0.5c-0.3,0-0.6,0-0.6,0.1c0,0.3,0.1,0.5,0.2,0.6c0.2,0.2,0.3,0.5,0.4,0.9
	c0.1,0.6-0.4,1-0.7,1.3c-0.3,0.2-0.6,0.4-0.6,0.6c0,0.1,0,0.2,0,0.4c-0.1,0.5-0.1,0.9-0.5,1.2c-0.1,0.1-0.2,0.1-0.4,0.1
	c-0.3,0-0.5-0.2-0.6-0.5C90.7,37.1,91.3,36.5,91.9,36.1z M88.7,28.2c-0.2-0.2-0.2-0.2-0.2-0.3v-0.1h0.1c0.2,0,1.3,0.3,2,1.7
	c0.6,1.4-0.2,2.1-0.7,2.6c-0.3,0.2-0.5,0.5-0.5,0.6c0,0.3,0.2,0.4,0.5,0.6c0.4,0.2,0.7,0.5,0.7,1.1c0,0.6-0.3,0.9-0.5,1.2
	c-0.2,0.3-0.4,0.6-0.4,1.1c0,0.3,0.1,0.6,0.2,1c0,0,0.1,0.1,0.1,0.2c0.1,0.2,0.2,0.5,0.1,0.7L90,38.8L90,38.7
	c-0.9-0.4-1.5-1-1.5-1.9c0-0.5,0.2-0.9,0.4-1.3c0.1-0.3,0.3-0.6,0.3-1c0-0.6-0.2-0.6-0.5-0.6c-0.4-0.1-0.6-0.3-0.6-1.1
	c0-0.6,0.6-1.1,1-1.5c0.4-0.4,0.8-0.6,0.8-1.2C89.9,29.2,89,28.4,88.7,28.2z M83.8,32.1c0.3-1.2,0.9-1.6,1.1-1.6H85v0.1
	c0,0.1,0,0.1-0.1,0.3c-0.1,0.3-0.4,0.9-0.3,1.5c0.1,0.4,0.5,0.5,0.8,0.6c0.5,0.2,1,0.4,1.1,0.9c0.1,0.5-0.2,0.9-0.4,1.4
	c-0.2,0.3-0.4,0.6-0.3,0.9c0.1,0.2,0.3,0.3,0.5,0.4c0.4,0.2,0.9,0.6,0.6,1.6c-0.1,0.3-0.3,0.4-0.6,0.4c-0.3,0-0.6,0-0.7-0.2
	c-0.1-0.1-0.1-0.1-0.1-0.2c0.1-0.6-0.2-0.8-0.5-1.1c-0.3-0.2-0.6-0.4-0.5-0.8c0-0.5,0.2-0.7,0.4-1s0.3-0.5,0.3-0.7
	c-0.1-0.1-0.3-0.1-0.5-0.2C84.1,34.2,83.1,33.9,83.8,32.1z M78.7,32.9l0.5,0.4c0.2,0.4,0.6,0.5,0.9,0.6c0.5,0.1,0.9,0.3,1.3,0.9
	c0.5,0.9,0.5,1.6,0.4,1.9c-0.1,0.4-0.1,0.6,0.4,0.7l0.3,0.2c0.6,0.3,0.9,0.4,1.2,0.7c0.2,0.2,0.6,0.6,0.5,1
	c-0.1,0.2-0.2,0.4-0.5,0.5l-0.1,0.1l-0.1-0.1c-0.6-1.1-1.1-1.1-1.7-1.1c-0.4,0-0.8,0-1.1-0.4c-0.4-0.4-0.3-0.9-0.3-1.5
	c0-0.5,0-0.9-0.1-1.3c-0.2-0.6-0.6-0.9-0.9-1.1c-0.5-0.2-0.8-0.5-0.7-1.2L78.7,32.9z M75.2,39.4c0.2,0,0.4,0.1,0.9,0.5
	c0.2,0.1,0.4,0.2,0.6,0.2c0.3,0,0.6-0.1,0.8-0.3c0.3-0.1,0.6-0.3,0.8-0.3c0.2,0,0.3,0,0.4,0.1c0.5,0.3,0.6,0.6,0.6,1
	c0.1,0.4,0.2,0.6,0.4,0.6c0.1,0,0.1,0,0.2,0c0.2,0,0.4,0,0.6-0.1s0.6-0.2,0.9-0.2c0.6,0,0.9,0.3,1.2,0.7c0.1,0.3,0.1,0.6-0.1,0.8
	c-0.1,0.2-0.3,0.4-0.5,0.4c-0.1,0-0.2-0.1-0.2-0.1c-0.2-0.2-0.4-0.3-0.6-0.3c-0.2,0-0.5,0-0.6,0.1c-0.3,0-0.5,0.1-0.7,0.1
	c-0.4,0-0.6-0.2-0.9-0.5c-0.2-0.3-0.4-0.6-0.5-0.9c-0.1-0.4-0.3-0.6-0.5-0.7c-0.1,0-0.3,0.1-0.4,0.2c-0.2,0.2-0.6,0.4-0.9,0.4
	c-0.5,0-0.9-0.3-1.4-0.8C75,39.8,75,39.7,75,39.5C75,39.4,75.1,39.4,75.2,39.4z M73.5,46.6c0-0.1,0-0.9,0.6-1.2
	c0.2-0.2,0.5-0.2,0.7-0.2c0.5,0,0.8,0,1.1,0.1c0,0,0.1,0,0.2,0h0.1c0.1,0,0.1,0,0.3-0.2c0.1-0.1,0.2-0.2,0.3-0.3
	c0.1,0,0.1-0.1,0.2-0.2c0.3-0.4,0.6-0.7,1.1-0.7c0.2,0,0.3,0,0.4,0.1c0.9,0.5,1.6,0.6,2.1,0.6s0.8-0.2,1-0.4
	c0.1-0.1,0.2-0.2,0.3-0.2c0.2,0,0.6,0.3,0.7,0.6c0,0.1,0.1,0.4-0.2,0.6c-0.4,0.4-1.3,0.9-2.2,0.9c-0.3,0-0.5,0-0.7-0.1
	c-0.2-0.1-0.4-0.3-0.6-0.4c-0.2-0.2-0.5-0.4-0.7-0.4c-0.1,0-0.2,0-0.3,0.1c-0.3,0.2-0.5,0.5-0.6,0.6c-0.2,0.3-0.4,0.5-0.7,0.6
	c-0.1,0.1-0.2,0.1-0.3,0.1c-0.4,0-0.6-0.2-0.9-0.4C75.2,46.2,75,46,74.8,46h-0.1c-0.6,0-1,0.6-1,0.6l-0.3,0.3L73.5,46.6z M73.2,81.6
	c0.6-0.6,0.8-1.9,1.4-2.3c0.2-0.2,0.3-0.4,0.4-0.5c0.5,0.4,1.1,0.9,1.5,1.3c0.6,0.6,1.6,1.2,2.3,1.4c0.2,0,0.3,0,0.4,0
	c0.2,0,0.3,0,0.4,0c0,0,0,0,0.2,0.1c0.5,0.4,0.8,0.5,1.4,0.6c1,0.2,3.1,1.1,3.2,1.9s0.2,1.8,0.2,1.8c0,0.9,0.1,1.8,0.1,2.4
	c0,0.5,0.1,0.8,0.1,1.1c0.1,0.3,0.1,0.5,0.3,0.6c0.6,0.7,2.1,1.3,3.6,1.4c-0.1,0.3-0.2,0.8-0.3,1.4c-0.2,0.5-0.3,0.9-0.4,1.3
	c-0.1,0.2-0.1,0.4-0.2,0.5c0,0.1,0,0.1,0,0.1c-5.6-4.5-13-9.6-16.2-11.6C71.8,82.4,72.6,81.9,73.2,81.6z M68.8,82.6
	c0.1,0,11.6,6.9,16.1,10.5c-7.2-4.1-14.3-4.4-15.6-4.4C68.5,85.1,68.8,82.5,68.8,82.6z M65.1,90.7c0.3-0.4,1.3-1.3,3.2-1.3
	c3.6,0.1,8,1,10.6,1.7c7.7,2.2,13.2,8.4,13.3,8.5c0.3,0.3,0.5,0.4,0.9,0c0.2-0.2,10.3-7.9,22.7-7.9c0,0,0,0,0.1,0.1
	c0.6,0.5,2,2.9,2,2.9c0.1,0.1,0.6,1.3,0.6,1.3c-10.9,0-24.2,6.7-24.1,6.6c0.7-0.7,9.1-8.7,20.4-9.1c0.2,0,1.1,0,1.1,0
	s-0.1-0.6-0.5-0.6c-11.3,0-20.1,7.8-20.9,8.4c-0.9,0.7-1.3,1.4-1.5,1.6c-0.2,0.3-1.6,0.4-1.9,0c-2.4-2.3-7.3-7.7-17.9-7.7
	c-3.2,0-7.9,1.6-12.4,2.7C60.9,97.8,64.9,90.9,65.1,90.7z M117.1,86.7c0.6,0,0.9-0.1,1.4-0.4c0.2,0.6,1.1,3.4,1.1,4.8
	c0,0.2,0,0.4,0,0.5c-0.3,0.9-0.9,3.5-0.9,3.5s-0.6-1.3-1.2-2.2c-0.5-0.6-0.6-0.6-0.6-1.5c0.1-0.6,0.4-1.2,0.4-1.8
	c0-0.3,0-0.6,0.1-0.8C117.3,88.1,117.2,87.5,117.1,86.7z M115,134.4c-1.2,0-2.3-0.3-2.8-0.4c0-0.6-0.5-28.8-0.4-29.3
	c0-0.2,0.3-0.4,0.8-0.3c0.5,0,1.3,0.2,2.4,0.2c0.6,0,2.6-0.3,2.7-0.3c0.6-0.2,0.6,0.7,0.6,1.6c0,0.2-0.5,27-0.5,27s0.6,0.3,0.6,0.7
	c0,0.2,0,0.2,0,0.3c0,0,0,0,0,0c0,0,0,0,0,0C117.1,134.5,116.1,134.4,115,134.4z M117.4,103.3c-0.7,0.4-1.7,0.6-2.6,0.6h-0.3
	c-1,0-1.9,0-2.4-0.4c-0.6-0.3-0.9-0.9-0.9-2.3c0-1.6,1.7-3.1,3.6-3.1c2,0,3.3,1.1,3.6,2.7c0,0.2,0,0.4,0,0.6
	C118.5,102.3,118.1,102.8,117.4,103.3z M78.8,98.2c-0.2,0.2-0.4,0.6-0.5,0.7c-0.1,0.2-0.9,0.6-2.1,1.1c-1.6,0.6-3.1,0.1-4.2,0.3
	c-1.4,0.2-1.9-1.7-0.6-2.5c0.4-0.3,0.7-0.7,1.1-1c0.2-0.2,0.4-0.3,0.5-0.6c0-0.2,0.1-0.3,0.3-0.4c0.4-0.1,0.5,0.4,0.4,0.8
	c-0.1,0.6-1.1,1.2-0.8,1.3c0.9-0.6,1.9-0.8,2.8-1.5c0.4-0.3,0.8-0.6,1.4-0.6c0.1,0,0.6,0,0.6,0.2c0,0.3-0.4,0.4-0.6,0.5
	c-0.3,0.2-0.6,0.5-0.8,0.6c-0.4,0.3-0.6,0.6-1,0.8c-0.2,0.2-1.4,0.8-0.8,0.9c0.3,0,0.6-0.3,0.8-0.4c0.5-0.3,0.8-0.6,1.2-0.8
	c0.5-0.4,0.8-0.7,1.4-1.1c0.1-0.1,0.3-0.2,0.6-0.3c0.6-0.1,0.6,0.2,0.4,0.4c-0.5,0.3-1.1,0.7-1.5,1.1c-0.5,0.5-1.1,0.9-1.7,1.4
	c-0.1,0.3,0.7-0.2,0.8-0.3c0.5-0.3,1-0.6,1.4-1c0.4-0.3,1-1,1.4-0.6c0.3,0.2-0.4,0.6-0.5,0.7C78.8,98,78.9,98.2,78.8,98.2z
	 M70.7,101.8c-0.4,1.1-1.5-0.4-2.2-1.9c-0.4-1.1-0.3-2,0.2-2.6c0.9-0.4,2.2-0.5,2.7,0.1C69.8,97.7,68.8,98.9,70.7,101.8z M63.7,98.9
	c0.6-0.1,1.5-0.2,2.2,0.1c2.3,0.8,2.2,3.3,1.7,4.4c-0.6,0.9-1.4,1.2-2.9,1.3c-1.7,0.2-4-0.4-4-2.5C60.7,99.7,62.8,98.9,63.7,98.9z
	 M68.2,107.2c0,0.3-0.6,25.6-0.6,28c-0.5,0.2-1.5,0.4-2.9,0.4c-0.8,0-1.9-0.1-2.9-0.4c-0.1,0-0.1,0-0.1,0s-0.6-28.1-0.6-28.2
	c-0.1-2.1,2.2-1.3,3.2-1.3c1.4,0.1,3.2-0.4,3.4,0C68.3,106.1,68.1,106.7,68.2,107.2z M101.2,139.5c-2.8,0-5.1-0.5-6-0.7
	c-0.8-0.2-1.6-0.5-2.4-0.8c-1.6-0.6-3.4-1.9-5.3-1.9c-0.8,0-1.3,0.4-2,0.6c-2.7,0.8-3.8,0.2-4.4,0c-4.1-1.2-6.4-5.3-6.9-9
	c-0.2-1.9-0.5-3.7-0.5-5.5c0.5,1.3,2.1,5.7,3.1,6.9c1.2,1.5,2.4,2.3,3.4,2.9c3.1,1.8,16.9,6.3,20.3,6.4c4.4,0.1,6.6-1.1,7.9-2.1
	C107,138.2,104.6,139.4,101.2,139.5z M119.3,136.3c-0.6,0-3.9,0.4-3.9,0.6s5.9,0,6.7,0c0.7,0.1,0.6,1.9-0.2,1.9
	c-0.1,0-11.6-0.5-12.4-0.6c-1-0.1-0.7-3.2-0.6-4.3c0-0.5-2.9,3.3-8.4,3.1c-6.9-0.2-14-3.1-18.7-5.3c-2-1.2-5.7-3.7-7.2-11.8
	c1-1.4,2-1.2,2.9-1c8.4,2,6.9,14.5,15.4,15c-0.1,0,8.1,0.6,9.9,0.1c0.2-0.1-0.7-0.5-1-0.5c-2.3,0-8.5-1.1-11.2-4.7
	c-2.9-3.7-5.4-8.8-12-10.7c-0.4-0.1-0.7-0.2-1.1-0.2c-2.7,0-3.3,1.1-4.2,1.9l0.1-10.2c0-1.9,0.5-3,1.1-3.9c0.7-1.1,1.9-2.1,3.5-2.1
	c2.8-0.1,5.4,4.1,8.1,8.9c0,0,4.9,10.2,9,11.6c3.3,1.1,3.6,0,3,0c-1.5,0-2.7-0.5-2.7-0.5c-4.4-1.9-8.2-11.6-8.2-11.6
	c-1.6-4-5.3-9.3-9.1-9.3c-5.6,0-5.6,6.5-5.6,6.5s-0.1,11.9-0.1,12c-0.1,1.4-1.1,4.4-1.4,5.6c-0.6,2.3-0.5,4.1,0,5.2
	c0.9,1.9,1.4,1.6,1.4,1.6c-0.3-1.1-0.6-2.2-0.6-3.3c0-0.2-0.1-1.9,0.2-1.7c0.1,0.1,0,0.6,0.2,1.1c0.4,1.7,1,2.6,1.4,3
	c1.1,1.4,2.7,2.3,4.3,3.1c1.2,0.6,2.1,1,3.4,1.3c0.6,0.1,2.6,0.6,4.4-0.3c0.6-0.4,0.6-0.5,1.3-0.5c0.6,0,1.5,0.4,2,0.6
	s0.8,0.4,0.6,0.6c-0.3,0.4-0.7,0.9-1.1,1.3c-1.8,1.9-2.9,1.5-3.1,1.5c-0.3,0-0.6-0.4-0.4-0.8c0.2-0.6,0.2-1,0.4-1.6
	c-0.2,0-6-0.4-12.2,0.1c-6.3,0.5-13.2,1.7-14.3,1.7c-0.6-0.4-0.6-1.2-0.2-1.9c1.3-0.1,5.1,0,5.1-0.3s-1.6-0.1-2.8-0.5
	c-0.7-0.2-0.7-1.8,0-1.7c0.4,0,3.1,0.4,3.7,0.4c1.9,0,3.2-0.4,3.2-0.4c0.1,0,0.2-0.2,0.2-0.2s0.2,0,0.9,0.4c0.4,0.2,0.3,0.6,0.2,1
	c-0.1,0.3-0.2,0.3-0.6,0.4c-0.9,0.5,5.4,0.2,4.8-0.1c-0.2,0-4.4-0.3-5.1-8.7c0.2-5.2,1.4-9.9,1.5-14c0.2-1.8,0.2-3.4-0.1-5.6
	c-0.1-0.9-0.9-6.9,7.5-7.9c5.6,0,9.9,2.4,12.7,3.9c6.5,3.5,10.6-4.6,15.7-4c7.6,1.7,4.8,12.4,5,15.9c0.4,7.3,0,16,1,17.5
	c0.4,0.4,0.2,0.6,3.4,0.7c1.9,0,4.2-0.6,4.7-0.6C120.2,134.3,120.3,136.3,119.3,136.3z M123.6,78.8c-0.6,0.4-1.7,0.8-2.9,2
	c-0.3,0.3-0.3,0.2-0.3,0.5c0.5-0.1,1.7-1.6,3.1-2.1c0.2,0.3-0.4,0.7-0.7,0.9c-0.3,0.2-1.1,1.1-1.8,1.6c-0.1,0.2-0.2,0.3-0.3,0.5
	c-0.5,0.9-0.9,1.9-1.6,2.6c-0.5,0.5-0.9,0.7-1.5,1s-1,0.5-1.6,0c-0.3-0.2-0.4-0.5-0.6-0.8c-0.2-0.3-0.3-0.6-0.4-0.9
	c-0.1-0.2-0.1-0.4,0-0.6c0.1-0.2,0.4-0.3,0.5-0.5c0.4-0.6,0.4-0.8,0.4-0.9c0,0,0.4-2.2,0.6-2.6c0.3-0.4,0.6-0.7,0.9-1.1
	c0.1-0.2,0.3-0.4,0.5-0.6c0.1-0.2,0.2-0.5,0.4-0.6c0.2,0,0.4,0.4,0.4,0.6s-0.1,0.6-0.7,1.6c-0.4,0.6-0.4,0.6-0.4,0.6
	c-0.2,0.3-0.1,0.8,0.1,0.6c0.1-0.1,0-0.2,0.4-0.7c0.4-0.6,0.6-0.6,0.8-1.7c0.4-0.2,1.5-1.1,2.1-1.3c0.8-0.3,1.9-0.6,2-0.5
	c0.1,0.1-0.1,0.6-0.7,0.7c-0.6,0.2-1.9,1.2-2.6,1.8c-0.5,0.4-0.6,0.9-0.6,1.1c0,0.4,0.4-0.6,1.2-1.1c0.7-0.6,1.6-1.1,2.2-1.4
	c0.4-0.2,0.6-0.2,0.7-0.5c0,0,0.6-0.4,0.8-0.1c0.2,0.2,0.1,0.6-0.6,0.9c-1.5,0.5-3.4,2.4-3.4,2.4c-0.1,0.1-0.3,0.5-0.2,0.6
	c0.1,0.1,0.4-0.4,0.5-0.5c0.2-0.2,0.6-0.5,1.2-0.9c0.7-0.6,1.3-0.9,1.9-1.2c0.3-0.2,0.5-0.5,0.6-0.4C124.6,78.3,123.7,79,123.6,78.8
	z M126.6,110.2c-0.3-0.6-0.6-1.3-0.9-2c-0.4-0.8,1-1.9,1.5-2.3c-0.1,0.5-0.1,1-0.3,1.5c-0.1,0.6-0.3,0.9-0.1,1.5
	C126.9,108.9,127.2,110.2,126.6,110.2z M134.4,113c-0.5-0.2-0.9-0.3-1.5-0.4c-0.7-0.2-1.4-0.5-2-0.6c-0.3,0-0.5-0.1-0.7-0.1
	c-0.5,0.1-0.9,0-1.4,0c-0.5-0.1-0.8,0.2-1.3,0.1c-0.4-0.1-0.6-0.3-0.3-0.6c0.7-0.5,1.6-0.6,2.4-0.9c1.2-0.3,2.2-0.3,3-0.2
	c0.4,0,0.8,0,1.2,0.1c0.2,0,0.7,0,0.9,0.2C135,111.1,134.5,112.6,134.4,113z M140.4,106.4c0.1,0,0.9,0,0.9,0s0.1,2.8,0.7,4
	c0,0,0.1,0.6-0.1,0.6c-0.4-0.1-5.5-1-6.1-1c-0.3,0-3.1,0.2-3.5,0c-0.5-0.3,0.1-1.6,0.3-2c0.5-1,0.9-0.5,1.8-0.3
	c1.4,0.3,1.9,0.5,2.6,0.6c0.7,0.1,1.7,0.3,2.4,0.6c0,0,0.1,0,0.2,0.1c0.2,0.2,0.7,0.6,0.7,0.3c-0.4-0.5-0.7-0.6-0.6-1.2
	C139.9,107.3,140.1,106.8,140.4,106.4z M137,84c4.5-1.8,6.8,0.2,7.9,2.6c0.6,1,0.9,1.7,1.1,2c0.8,2,1.9,2.5,1.6,2.9
	c0-0.1-1.2,0.2-1.4,0.2c-0.3,0-0.4-0.4-0.6-0.4c0.2,0.5-0.4,0.4-0.6,0.5c-0.6,0.1-1.6,0.2-2-0.3c-0.2-0.2-0.3-0.8-0.4-0.8
	c-0.6-0.2-0.2,1.2,0.1,1.4l-0.4,0.2c-0.2,0.1-0.3,0-0.5-0.1c-0.3-0.2-0.4-0.6-0.6-0.9c-0.1-0.3-0.3-1.5-0.8-1.3
	c-0.1,0-0.2,0.1-0.3,0.2c0,0.1,0.1,0,0.2,0.1c0,0.1,0.1,0.1,0.1,0.2c0.2,0.1,0.3,0.3,0.5,0.7c0.2,0.4,0.3,1,0.6,1.3
	c0.4,0.3,1,0.3,1.4,0.1c0.2-0.1,0.1-0.1,0.3,0c0.1,0.1,0.2,0.2,0.4,0.2c0.6,0.1,1.2-0.1,1.6-0.5c0.1,0,0.4,0.3,0.4,0.3
	c0.1,0.1,0.3-0.1,0.5-0.1c0.4-0.1,0.8-0.3,1.2,0c0.4,0.2,0.6,0.6,0.6,0.6c0,0.6-0.7,0.6-3.2,2.9c-0.6,0.6-1.1,0.7-1.1,0.3
	c0-0.2,0-0.4-0.1-0.6c-0.2-0.4-0.5,0.3-0.6,0.5c-0.4,0.5-0.6,0.7-0.8,1c-0.4,0.5-0.9,1-1.5,1.2c-0.7,0.3-0.7-0.6-1.4-0.6
	c0,0-0.5-0.1-0.4-0.5c0.5-0.6,0.4-0.6,0.1-0.7c-0.1,0-0.1,0-0.6,0.4c-0.2,0.2-0.5,0.1-0.6-0.1c-0.1,0,0,0-0.2-0.2
	c-0.1-0.2-0.2-0.3-0.4-0.3c-0.3,0.1-0.5,0.4-0.6,0.5c-0.5,0.3-0.6-0.4-0.7-0.7c0-0.5-0.1-0.6-0.2-1c-0.1-0.3-0.3-1.1-0.4-1.4
	c-0.1-0.3-0.1-0.2-0.2-0.4s-0.3-0.3-0.4-0.5c0-0.1,0-0.3-0.1-0.5c-0.3-0.6-0.9-1.8-0.5-2.4c0.4-0.6,1.3-0.6,1.9-0.4
	c0.9,0.3,1.9,1.2,2.7,1.9c0.3,0.3,0.6,0.6,0.8,0.5c0.1,0,0.1,0,0.2-0.1c0-0.1,0.1-0.3,0.1-0.4c-0.5,0.4-1.5-0.9-1.7-1.2
	c-0.5-0.9-0.6-1.4-1.9-1.5c0-0.1,0-0.3,0-0.4c0-0.4-1.3,0.4-1.3,0.4c-0.6,0.3-0.8,0.6-1.3,1.1c-0.1,0.1-0.1,0.2-0.2,0.3
	c-1-0.7,0.2-2.6,0.6-3.3C134.5,85.6,135.6,84.5,137,84z"/>
<path class="st1" d="M122.9,120.5c-1.3-0.8,5.7,15.1,6.9,14.5c0.9-0.5,1.9-0.2,2.7,0.6c0.3-0.3,0.6-0.6,0.8-0.8
	c-0.3-0.2-0.7-0.3-1.2-0.5C127.7,132.6,124.2,121.4,122.9,120.5z"/>
<path class="st1" d="M137,91.3c0,0-1.5,0.5-2,1.6c-0.1,0.1,0,0.3,0.1,0.4c0.1,0,0.1,0,0.2,0c0.2,0.1,0.2,0.2,0.3,0.3
	c0,0.1,0.1,0.2,0.3,0.2c0.2,0.3,0.5,0.4,0.6,0.4c0.1,0,0.2-0.1,0.2-0.1l0.1-0.1l0.6-0.8c0.1-0.1,0.1-0.3,0-0.4
	c0,0.1-0.1,0.1-0.3,0.2c0,0-0.1,0.1-0.3,0.2c-0.2,0.1-0.5,0.2-0.6,0.2c-0.1-0.1-0.2-0.2-0.4-0.4c0.2-0.3,0.5-0.6,0.7-0.8
	c0.4-0.2,0.7-0.2,0.7-0.2c0.2-0.1,0.2-0.2,0.2-0.4C137.3,91.3,137.2,91.3,137,91.3z"/>
<path class="st1" d="M47.3,123.4c-0.6,0.2-1.2,1.1-1.5,1.6c-0.2,0.3-1.4,1.9-1.5,1.9c-1.5,1-2.8,1.3-4.4,1.7c0.4,0.5,0.7,0.9,1,1.3
	c1,0,2.5,0,2.5,0c0.4,0,0.3,1.6,0.1,1.6c-0.1,0-0.6,0-1.2,0c0.4,0.4,0.6,0.7,1,1.1c0.1-0.1,0.2-0.1,0.3-0.2c0.3-0.2,0.5-0.2,0.5-0.2
	c0.1,0,0.2-0.1,0.2-0.2c0.1-0.6,0.2-1.2,0.3-1.8c0.1-0.3,0.2-0.6,0.3-0.7c0.2-0.6,0.4-1.2,0.6-1.8c0.6-1.1,0.8-2.8,1.9-3.6
	c0.2-0.1,0.4-0.2,0.4-0.4c0.1-0.2,0-0.3-0.1-0.4C47.5,123.4,47.4,123.4,47.3,123.4z"/>
<path class="st1" d="M127,117.7c-0.2,0.7,4.4,4.4,6.5,5.6c1.5,0.8,3.1,1.5,3.3,4.1c0.1,1,0.4,2.2,0.6,3.1c1.6-1.8,3-3.7,4.4-5.6
	c-3.7-0.3-8.7-1.9-14.3-7.1C127.3,117.6,127,117.6,127,117.7z"/>
<path class="st1" d="M43.9,95c0.2,0.2,0.4,0.4,0.6,0.5c0.1,0.1,0.3,0,0.5-0.1c0.3-0.2,0.6-0.6,0.6-0.8c0.1-0.3,0.1-0.5-0.3-0.6
	c-0.1,0-0.5,0-0.4,0.2c0,0.1,0.4,0.2,0.4,0.4c0,0.4-0.2,0.3-0.5,0.3s-0.6-0.1-0.7-0.1C43.4,94.4,43.6,94.7,43.9,95z"/>
<path class="st1" d="M102.3,87c-0.2-0.2-1.3-1.6-1.5-1.6c-0.1,0.1,0.3,1.9,0.7,2.3C102,88,102.5,87.5,102.3,87z"/>
<path class="st1" d="M44,90.9C44,90.9,44,90.8,44,90.9c-0.1-0.1-0.2,0-0.4,0c-0.2,0.1-0.3,0.1-0.4,0.2C43.6,91,44,90.8,44,90.9z"/>
<path class="st1" d="M115.8,106.2h-2.7c-0.8,0-0.7,0.7-0.2,0.7s0.1-0.4,2.9-0.4C116.1,106.5,116.1,106.2,115.8,106.2z"/>
<path class="st1" d="M85.5,97c0.1,0.1,0.6,0.4,0.7,0.2c0.1-0.1-3-2.6-9.2-3.7c-2.9-0.6-5.6-0.6-7.6-0.6c-2.1,0-3.4,0.1-3.4,0.1
	c-0.4,0-0.6,0.6-0.6,0.6s1.9-0.2,4-0.2c2,0,4.7,0.1,7.5,0.6C80.5,94.7,83.5,95.6,85.5,97z"/>
<path class="st1" d="M75,82.8c-0.3,0.6,0.4,0.8,0.6,0.6c0.5-0.3,0.7-1.9,0.7-1.9C76.3,81.6,75.1,82.5,75,82.8z"/>
<path class="st1" d="M88.4,62c-0.7,0-0.9,0.1-1.6,0.4c-0.6,0.3-1.4,1.1-1.4,1.1s-0.2,0.5,0,0.9c0.2,0.5,0.2,0.5,0.4,0.7
	c0.2,0.3,0.5,0.3,0.5,0.3s-1-1.1-0.5-1.8c1.7-1.9,3.1-0.9,3.1-0.9S89.5,61.9,88.4,62z"/>
<path class="st1" d="M88.7,63.6c-0.3,0.9-1.4,1.3-1.6,0.9c-0.2-0.5,1.3-0.9,1.1-0.9c-0.4,0-0.7,0.1-1,0.4c-0.1,0.1-0.3,0.2-0.4,0.4
	c-0.1,0.2,0,0.2,0,0.3c0,0.2-0.1,0.4,0,0.5c0.1,0.1,0.4,0,0.5,0c0.5,0,0.9-0.3,1.2-0.6c0.1-0.1,0.6-0.7,0.5-0.8
	C88.9,63.5,88.7,63.5,88.7,63.6z"/>
<path class="st1" d="M80.2,86.3c0,0.3,0.4,0.5,0.6,0.4c0.3-0.2,0.6-1.9,0.4-1.9C81.2,84.6,80.3,85.7,80.2,86.3z"/>
<path class="st1" d="M99.4,87.7c-0.1-0.5-1.1-1.6-1.3-1.5c-0.2,0.1,0.1,1.7,0.3,1.9C98.7,88.8,99.5,88.2,99.4,87.7z"/>
<path class="st1" d="M76.9,85.5c0.1,0.3,0.3,0.5,0.6,0.4c0.7-0.1,0.7-2.1,0.6-2.2C78.1,83.8,76.9,85,76.9,85.5z"/>
<path class="st1" d="M88.8,68.1c0,0-0.7,0.2-1.2,0.4c-0.6,0.2-0.5,0.6-0.9,0.6c-0.5,0.1-0.6,0.3-0.6,0.4c-0.1,0.2,0.9,0.1,1.2-0.2
	c0.4-0.6,0.7-0.5,1-0.6C88.7,68.4,89.1,68,88.8,68.1z"/>
<path class="st1" d="M82,88.5c0,0.3,0.4,0.5,0.6,0.4c0.5-0.1,0.3-2,0.2-2C82.8,86.8,81.9,87.9,82,88.5z"/>
<path class="st1" d="M109.3,117.3c-0.3-0.1-1.3,8.1-2.1,10.4c-0.8,2.4-1.5,3.3-2.9,4.1c-0.3,0.2-0.2,0.7-0.2,0.7s3.2-0.9,4-4.1
	c0.5-2,0.9-4.5,1.2-6.2c0.1-0.9,0.4-4.2,0.4-4.2C109.7,117.5,109.6,117.3,109.3,117.3z"/>
<path class="st1" d="M103.5,110.5c-1,0-5.3,8.5-14.2,2.6c-0.4-0.3-1.2-1.1-1.3-0.9c-0.1,0.2,0.4,0.6,0.6,0.9
	C97.3,121.9,104.8,110.5,103.5,110.5z"/>
<path class="st1" d="M88.7,69c-0.3,0.2-0.8,0.6-1.1,0.7c-0.6,0.3-0.9-0.1-0.9,0c0,0.2,0.6,0.6,1.5,0.1C88.7,69.2,88.8,68.8,88.7,69z
	"/>
<path class="st1" d="M97.2,90.9c0.1,0,0.1,0,0.2,0c0.1,0,0.2-0.2,0.2-0.3c0-0.6-0.6-1.5-0.6-1.5l-0.3-0.5c-0.1,0.1-0.1,0.6-0.1,0.6
	c0,0.2,0,0.4,0,0.6C96.5,90.5,96.8,91,97.2,90.9z"/>
<path class="st1" d="M66.7,107.2h-3.3c-0.3,0-0.1,0.3,0.2,0.3c2.8,0,2.8,0.6,3.3,0.6C67.6,107.9,67.6,107.2,66.7,107.2z"/>
<path class="st1" d="M86.3,68.3c0,0,0.6-0.1,0.6-0.1c-0.1,0,0.2-0.6,0.2-0.6c0.1-0.1,0.2,0,0.2,0c0.1,0,0.1-0.2,0.1-0.2
	c0-0.1-0.1-0.1-0.2-0.1c0,0-0.5,0.5-0.8,0.7c-0.2,0.1-0.4,0.1-0.4,0.1c-0.1,0-0.1,0.1-0.1,0.1c0,0.1,0.1,0.1,0.2,0.1
	C86.2,68.4,86.3,68.4,86.3,68.3z"/>
<path class="st1" d="M84.3,66c-0.2-0.1-0.6,0-0.8,0.1c-0.2,0.1-0.9,0.5-0.6,0.8c0-0.1,0.6-0.7,1.2-0.6c0.1,0.2-0.6,0.6-1,0.7
	c-0.3,0.6,0.8,0.1,1,0c0.4-0.3,0.6-0.6,0.7-0.6C84.9,66.4,84.3,66,84.3,66z"/>
</svg>
